<?xml version="1.0" standalone="no"?>
<!DOCTYPE svg PUBLIC "-//W3C//DTD SVG 20010904//EN"
 "http://www.w3.org/TR/2001/REC-SVG-20010904/DTD/svg10.dtd">
<svg version="1.0" xmlns="http://www.w3.org/2000/svg"
 width="235.000000pt" height="107.000000pt" viewBox="0 0 235.000000 107.000000"
 preserveAspectRatio="xMidYMid meet">

<g transform="translate(0.000000,107.000000) scale(0.100000,-0.100000)"
fill="#000000" stroke="none">
<path d="M1860 1060 c0 -5 5 -10 10 -10 6 0 10 5 10 10 0 6 -4 10 -10 10 -5 0
-10 -4 -10 -10z"/>
<path d="M1343 1047 c0 -8 6 -14 14 -14 7 0 13 6 13 14 0 7 -6 13 -13 13 -8 0
-14 -6 -14 -13z"/>
<path d="M938 1043 c68 -2 176 -2 240 0 64 1 9 3 -123 3 -132 0 -185 -2 -117
-3z"/>
<path d="M596 1033 c-11 -11 -6 -23 9 -23 8 0 15 4 15 9 0 13 -16 22 -24 14z"/>
<path d="M1335 655 c0 -192 1 -270 2 -172 2 98 2 256 0 350 -1 95 -3 15 -2
-178z"/>
<path d="M1202 623 l3 -318 2 313 3 314 45 -4 c25 -2 45 0 45 4 0 5 -22 8 -50
8 l-50 0 2 -317z"/>
<path d="M914 886 c-8 -8 -7 -15 0 -22 8 -8 15 -7 22 0 8 8 7 15 0 22 -8 8
-15 7 -22 0z"/>
<path d="M643 873 c26 -2 68 -2 95 0 26 2 4 3 -48 3 -52 0 -74 -1 -47 -3z"/>
<path d="M818 873 c7 -3 16 -2 19 1 4 3 -2 6 -13 5 -11 0 -14 -3 -6 -6z"/>
<path d="M1072 583 l3 -278 5 270 5 270 40 0 40 0 5 -270 6 -270 -1 275 0 275
-52 3 -53 3 2 -278z"/>
<path d="M812 758 c-8 -8 -11 -50 -10 -132 l2 -121 6 125 5 125 120 5 120 6
-115 2 c-79 1 -120 -2 -128 -10z"/>
<path d="M1302 745 c0 -16 2 -22 5 -12 2 9 2 23 0 30 -3 6 -5 -1 -5 -18z"/>
<path d="M1432 745 c0 -16 2 -22 5 -12 2 9 2 23 0 30 -3 6 -5 -1 -5 -18z"/>
<path d="M1555 763 c79 -3 103 -7 113 -20 11 -15 12 -15 12 -1 0 24 -22 28
-128 26 l-97 -2 100 -3z"/>
<path d="M560 653 c0 -7 6 -13 13 -13 8 0 14 6 14 13 0 8 -6 14 -14 14 -7 0
-13 -6 -13 -14z"/>
<path d="M223 653 c59 -2 154 -2 210 0 56 1 8 3 -108 3 -116 0 -161 -2 -102
-3z"/>
<path d="M430 560 c0 -5 5 -10 10 -10 6 0 10 5 10 10 0 6 -4 10 -10 10 -5 0
-10 -4 -10 -10z"/>
<path d="M2024 546 c-8 -8 -7 -15 0 -22 8 -8 15 -7 22 0 8 8 7 15 0 22 -8 8
-15 7 -22 0z"/>
<path d="M1823 533 c26 -2 68 -2 95 0 26 2 4 3 -48 3 -52 0 -74 -1 -47 -3z"/>
<path d="M388 275 l-3 -215 133 0 c81 0 132 -4 132 -10 0 -13 87 -13 95 0 4 6
64 10 146 10 l139 0 -2 213 -3 212 -40 1 -40 1 38 -4 37 -4 0 -205 0 -204
-134 0 c-79 0 -137 -4 -141 -10 -8 -13 -82 -13 -90 0 -4 6 -58 10 -131 10
l-124 0 0 205 0 205 228 3 227 2 -232 3 -232 2 -3 -215z"/>
<path d="M898 483 c7 -3 16 -2 19 1 4 3 -2 6 -13 5 -11 0 -14 -3 -6 -6z"/>
<path d="M1546 444 c-9 -23 -7 -434 2 -434 4 0 7 98 7 217 l0 218 152 3 c138
2 152 1 156 -15 3 -14 4 -14 3 2 -1 19 -9 20 -157 23 -136 2 -157 0 -163 -14z"/>
<path d="M684 401 c3 -5 14 -7 25 -4 23 6 68 -17 101 -52 20 -22 25 -37 25
-80 0 -38 -5 -59 -17 -72 -17 -16 -20 -15 -68 32 -27 27 -52 46 -55 43 -4 -3
17 -25 44 -48 57 -48 62 -62 29 -78 -13 -6 -18 -11 -12 -11 20 -2 66 42 80 75
30 71 5 143 -62 181 -38 22 -101 32 -90 14z"/>
<path d="M618 379 c-10 -5 -23 -20 -29 -32 -10 -18 -6 -17 20 7 39 37 42 45 9
25z"/>
<path d="M1970 314 c0 -8 5 -12 10 -9 6 4 8 11 5 16 -9 14 -15 11 -15 -7z"/>
<path d="M560 264 c0 -14 4 -23 9 -20 5 3 7 15 4 26 -7 28 -13 25 -13 -6z"/>
<path d="M1808 273 c-14 -13 -22 -14 -40 -6 -19 8 -30 5 -62 -19 -21 -15 -34
-28 -29 -28 6 0 22 9 37 21 19 15 34 19 54 14 21 -4 36 0 53 14 13 11 19 20
14 21 -6 0 -18 -8 -27 -17z"/>
<path d="M1864 150 c0 -80 2 -112 3 -73 2 40 2 106 0 146 -1 39 -3 7 -3 -73z"/>
<path d="M1168 263 c67 -2 177 -2 245 0 67 1 12 3 -123 3 -135 0 -190 -2 -122
-3z"/>
<path d="M1603 224 c-23 -20 -24 -23 -6 -15 12 6 25 15 28 21 3 5 12 7 20 3 8
-3 15 -3 15 0 0 18 -34 12 -57 -9z"/>
<path d="M591 180 c21 -33 76 -60 119 -59 36 1 32 3 -34 14 -26 4 -50 18 -70
38 -24 26 -27 27 -15 7z"/>
<path d="M1207 143 l162 -3 4 -68 3 -67 2 67 2 67 73 4 c39 1 -36 3 -168 3
-150 0 -179 -2 -78 -3z"/>
<path d="M361 44 c0 -11 3 -14 6 -6 3 7 2 16 -1 19 -3 4 -6 -2 -5 -13z"/>
<path d="M1038 37 c-3 -19 -2 -25 4 -19 6 6 8 18 6 28 -3 14 -5 12 -10 -9z"/>
<path d="M1694 50 c2 -16 20 -14 24 2 3 10 2 10 -6 -1 -7 -9 -11 -10 -15 -2
-4 7 -5 8 -3 1z"/>
</g>
</svg>
